<svg width="470" height="512" viewBox="0 0 470 512" fill="none" xmlns="http://www.w3.org/2000/svg">
<path d="M149.667 477.013C172.325 499.324 202.815 511.881 234.613 512.001C266.412 512.121 296.995 499.792 319.821 477.653L401.037 402.197C444.96 357.89 469.603 298.026 469.603 235.637C469.603 173.249 444.96 113.385 401.037 69.0773C379.292 47.1874 353.432 29.8149 324.945 17.96C296.458 6.10514 265.908 0.00201416 235.053 0.00201416C204.198 0.00201416 173.648 6.10514 145.162 17.96C116.675 29.8149 90.8145 47.1874 69.0692 69.0773C25.0514 113.568 0.436229 173.674 0.604125 236.26C0.772021 298.845 25.7093 358.819 69.9652 403.072L149.667 477.013ZM114.381 114.219C130.18 98.3049 148.971 85.6746 169.672 77.0556C190.374 68.4366 212.576 63.9992 235 63.9992C257.424 63.9992 279.626 68.4366 300.328 77.0556C321.029 85.6746 339.82 98.3049 355.619 114.219C387.582 146.327 405.609 189.736 405.792 235.041C405.976 280.347 388.302 323.9 356.6 356.267L275.533 431.467C264.487 441.997 249.779 447.818 234.518 447.699C219.258 447.579 204.642 441.529 193.763 430.827L114.381 357.056C82.3607 324.758 64.395 281.118 64.395 235.637C64.395 190.157 82.3607 146.517 114.381 114.219ZM128.333 234.667C128.333 226.18 131.705 218.04 137.706 212.039C143.707 206.038 151.846 202.667 160.333 202.667H203V160C203 151.513 206.371 143.374 212.372 137.373C218.374 131.371 226.513 128 235 128C243.487 128 251.626 131.371 257.627 137.373C263.628 143.374 267 151.513 267 160V202.667H309.667C318.153 202.667 326.293 206.038 332.294 212.039C338.295 218.04 341.667 226.18 341.667 234.667C341.667 243.154 338.295 251.293 332.294 257.294C326.293 263.295 318.153 266.667 309.667 266.667H267V309.333C267 317.82 263.628 325.96 257.627 331.961C251.626 337.962 243.487 341.333 235 341.333C226.513 341.333 218.374 337.962 212.372 331.961C206.371 325.96 203 317.82 203 309.333V266.667H160.333C151.846 266.667 143.707 263.295 137.706 257.294C131.705 251.293 128.333 243.154 128.333 234.667Z" fill="white"/>
</svg>
