<svg width="512" height="512" viewBox="0 0 512 512" fill="none" xmlns="http://www.w3.org/2000/svg">
<path d="M213.338 170.67C213.338 162.231 215.84 153.982 220.528 146.965C225.216 139.949 231.88 134.48 239.676 131.251C247.473 128.021 256.052 127.177 264.328 128.823C272.605 130.469 280.207 134.533 286.174 140.5C292.141 146.467 296.205 154.069 297.851 162.346C299.497 170.622 298.652 179.201 295.423 186.998C292.194 194.794 286.725 201.457 279.708 206.146C272.692 210.834 264.443 213.336 256.004 213.336C244.688 213.336 233.836 208.841 225.834 200.84C217.833 192.838 213.338 181.986 213.338 170.67ZM512.004 285.315V395.16C512.123 409.929 508.841 424.526 502.411 437.822C495.981 451.118 486.577 462.755 474.927 471.832C464 480.405 451.25 486.352 437.66 489.215C424.071 492.078 410.005 491.78 396.548 488.344C395.61 488.11 346.884 470.894 346.884 470.894C338.855 468.711 330.379 468.792 322.394 471.128L205.06 507.523C194.857 510.492 184.284 512 173.658 512.003C162.061 512.013 150.538 510.169 139.524 506.542L81.0922 487.342C57.384 479.663 36.7404 464.627 22.1589 444.418C7.57729 424.209 -0.183211 399.878 0.00415972 374.958V288.003C-0.131032 271.918 3.03043 255.977 9.29356 241.161C15.5567 226.345 24.7887 212.969 36.4202 201.859C50.2941 188.892 67.2139 179.632 85.6148 174.936C85.1817 151.961 89.3444 129.131 97.8584 107.788C106.372 86.4442 119.066 67.0173 135.194 50.6484C150.96 34.6092 169.763 21.8702 190.505 13.1744C211.247 4.47853 233.513 0 256.004 0C278.495 0 300.761 4.47853 321.503 13.1744C342.245 21.8702 361.048 34.6092 376.815 50.6484C408.513 82.7929 426.35 126.08 426.5 171.224L436.442 174.702C458.786 183.268 477.989 198.442 491.489 218.201C504.989 237.959 512.146 261.385 512.004 285.315ZM180.719 249.176L250.97 317.87C251.644 318.553 252.448 319.096 253.334 319.467C254.221 319.837 255.172 320.028 256.132 320.028C257.093 320.028 258.044 319.837 258.93 319.467C259.816 319.096 260.62 318.553 261.295 317.87L331.695 248.856C351.681 228.344 362.838 200.818 362.774 172.179C362.711 143.539 351.431 116.064 331.354 95.6404C321.533 85.6359 309.818 77.6891 296.891 72.2643C283.965 66.8394 270.087 64.0453 256.068 64.0453C242.05 64.0453 228.171 66.8394 215.245 72.2643C202.319 77.6891 190.603 85.6359 180.783 95.6404C160.676 116.13 149.407 143.688 149.395 172.395C149.383 201.103 160.63 228.67 180.719 249.176ZM448.004 285.294C448.196 274.549 445.137 263.998 439.229 255.021C433.321 246.045 424.839 239.063 414.895 234.99C406.436 257.14 393.469 277.292 376.815 294.168L306.116 363.544C292.834 376.72 274.884 384.114 256.175 384.114C237.466 384.114 219.515 376.72 206.234 363.544L135.578 294.552C119.421 278.164 106.694 258.721 98.1375 237.358C91.6406 239.739 85.7012 243.427 80.6868 248.195C75.3322 253.337 71.0891 259.523 68.2197 266.37C65.3503 273.217 63.9155 280.58 64.0042 288.003V374.936C63.7783 386.25 67.1758 397.34 73.7006 406.586C80.2253 415.832 89.5353 422.75 100.271 426.328L159.492 445.699C168.282 448.59 177.74 448.761 186.628 446.19L304.196 409.752C324.671 403.785 346.439 403.896 366.852 410.072L413.508 426.67C417.363 427.465 421.345 427.401 425.173 426.483C429 425.565 432.578 423.815 435.652 421.358C439.589 418.232 442.751 414.24 444.893 409.692C447.036 405.145 448.1 400.165 448.004 395.139V285.294Z" fill="white"/>
</svg>
