<svg width="469" height="512" viewBox="0 0 469 512" fill="none" xmlns="http://www.w3.org/2000/svg">
<path d="M149.063 477.011C171.722 499.321 202.212 511.879 234.01 511.999C265.809 512.119 296.392 499.79 319.218 477.651L400.434 402.195C444.356 357.888 469 298.024 469 235.635C469 173.246 444.356 113.383 400.434 69.0753C378.689 47.1854 352.828 29.8129 324.342 17.958C295.855 6.10313 265.305 0 234.45 0C203.595 0 173.045 6.10313 144.558 17.958C116.072 29.8129 90.2112 47.1854 68.466 69.0753C24.4481 113.565 -0.167043 173.672 0.000853287 236.257C0.168749 298.843 25.106 358.817 69.3619 403.07L149.063 477.011ZM113.778 114.217C129.576 98.3028 148.367 85.6726 169.069 77.0536C189.77 68.4346 211.973 63.9972 234.397 63.9972C256.821 63.9972 279.023 68.4346 299.724 77.0536C320.426 85.6726 339.217 98.3028 355.015 114.217C386.979 146.325 405.005 189.734 405.189 235.039C405.373 280.345 387.699 323.898 355.997 356.265L274.93 431.465C263.884 441.995 249.176 447.816 233.915 447.697C218.655 447.577 204.039 441.527 193.159 430.825L113.778 357.054C81.7575 324.756 63.7917 281.116 63.7917 235.635C63.7917 190.155 81.7575 146.515 113.778 114.217Z" fill="white"/>
<path d="M134.397 355.998V309.381L245.675 198.605L291.79 244.72L181.013 355.998H134.397ZM313.344 223.166L267.229 177.051L281.765 162.514C285.79 158.17 291.057 155.998 297.566 155.998C304.074 155.998 309.334 158.17 313.344 162.514L327.88 177.051C332.225 181.061 334.397 186.3 334.397 192.768C334.397 199.236 332.225 204.523 327.88 208.63L313.344 223.166Z" fill="white"/>
</svg>
