<svg width="512" height="512" viewBox="0 0 512 512" fill="none" xmlns="http://www.w3.org/2000/svg">
<path d="M180.032 265.365L210.752 234.667L180.032 203.968C174.029 197.965 170.656 189.823 170.656 181.333C170.656 172.844 174.029 164.702 180.032 158.699C186.035 152.696 194.177 149.323 202.667 149.323C211.156 149.323 219.298 152.696 225.301 158.699L256 189.419L286.699 158.699C292.702 152.696 300.844 149.323 309.333 149.323C317.823 149.323 325.965 152.696 331.968 158.699C337.971 164.702 341.344 172.844 341.344 181.333C341.344 189.823 337.971 197.965 331.968 203.968L301.248 234.667L331.968 265.365C337.971 271.368 341.344 279.51 341.344 288C341.344 296.49 337.971 304.632 331.968 310.635C325.965 316.638 317.823 320.01 309.333 320.01C300.844 320.01 292.702 316.638 286.699 310.635L256 279.915L225.301 310.635C219.298 316.638 211.156 320.01 202.667 320.01C194.177 320.01 186.035 316.638 180.032 310.635C174.029 304.632 170.656 296.49 170.656 288C170.656 279.51 174.029 271.368 180.032 265.365ZM90.9226 403.072C46.6667 358.819 21.7294 298.845 21.5615 236.26C21.3936 173.674 46.0088 113.568 90.0266 69.0773C111.772 47.1874 137.632 29.8149 166.119 17.96C194.606 6.10514 225.156 0.00201416 256.011 0.00201416C286.866 0.00201416 317.416 6.10514 345.902 17.96C374.389 29.8149 400.249 47.1874 421.995 69.0773C465.917 113.385 490.56 173.249 490.56 235.637C490.56 298.026 465.917 357.89 421.995 402.197L340.757 477.653C317.934 499.773 287.365 512.089 255.582 511.97C223.798 511.85 193.323 499.304 170.667 477.013L90.9226 403.072ZM135.381 357.056L214.784 430.741C225.664 441.443 240.279 447.494 255.54 447.613C270.8 447.733 285.509 441.912 296.555 431.381L377.6 356.267C409.285 323.912 426.954 280.382 426.782 235.097C426.611 189.812 408.612 146.417 376.683 114.304C360.884 98.3902 342.093 85.7599 321.392 77.1409C300.69 68.5219 278.488 64.0846 256.064 64.0846C233.64 64.0846 211.438 68.5219 190.736 77.1409C170.035 85.7599 151.244 98.3902 135.445 114.304C103.442 146.59 85.4813 190.207 85.4693 235.667C85.4574 281.127 103.395 324.753 135.381 357.056Z" fill="white"/>
</svg>
